<svg width="12" height="12" viewBox="0 0 12 12" fill="none" xmlns="http://www.w3.org/2000/svg">
<path d="M8.8877 5.99756C8.8877 5.93571 8.87549 5.87793 8.85108 5.82422C8.82666 5.77051 8.79167 5.72087 8.7461 5.67529L4.8789 1.88623C4.79101 1.8016 4.68359 1.75928 4.55664 1.75928C4.47526 1.75928 4.40039 1.77881 4.33203 1.81787C4.26367 1.85693 4.20996 1.90983 4.1709 1.97656C4.13184 2.04329 4.1123 2.11898 4.1123 2.20361C4.1123 2.32406 4.15462 2.42985 4.23926 2.521L7.79395 5.99756L4.23926 9.47413C4.15462 9.56526 4.1123 9.67106 4.1123 9.79153C4.1123 9.87616 4.13184 9.95184 4.1709 10.0186C4.20996 10.0853 4.26367 10.1382 4.33203 10.1772C4.40039 10.2163 4.47526 10.2358 4.55664 10.2358C4.68359 10.2358 4.79101 10.1919 4.8789 10.104L8.7461 6.31982C8.79167 6.27425 8.82666 6.22461 8.85108 6.1709C8.87549 6.11719 8.8877 6.05941 8.8877 5.99756Z" fill="#0071E3"/>
</svg>
