<svg width="20" height="20" viewBox="0 0 20 20" fill="#FFFFF" xmlns="http://www.w3.org/2000/svg">
<path d="M18.3327 13.493C18.3327 16.5263 16.5244 18.3346 13.491 18.3346H12.4993C12.041 18.3346 11.666 17.9596 11.666 17.5013V12.693C11.666 12.468 11.8493 12.2763 12.0743 12.2763L13.541 12.2513C13.6577 12.243 13.7577 12.1596 13.7827 12.043L14.0744 10.4513C14.0994 10.3013 13.9827 10.1596 13.8243 10.1596L12.0493 10.1846C11.816 10.1846 11.6327 10.0013 11.6244 9.77631L11.591 7.73463C11.591 7.6013 11.6993 7.48464 11.841 7.48464L13.841 7.4513C13.9827 7.4513 14.091 7.34298 14.091 7.20131L14.0577 5.20129C14.0577 5.05963 13.9494 4.9513 13.8077 4.9513L11.5577 4.98464C10.1743 5.00964 9.07436 6.14297 9.09936 7.5263L9.14102 9.81797C9.14935 10.0513 8.96603 10.2346 8.73269 10.243L7.73268 10.2596C7.59101 10.2596 7.48269 10.368 7.48269 10.5096L7.50769 12.093C7.50769 12.2346 7.61601 12.343 7.75768 12.343L8.75769 12.3263C8.99102 12.3263 9.17434 12.5096 9.18267 12.7346L9.25767 17.4846C9.266 17.9513 8.891 18.3346 8.42434 18.3346H6.50768C3.47435 18.3346 1.66602 16.5263 1.66602 13.4846V6.50963C1.66602 3.4763 3.47435 1.66797 6.50768 1.66797H13.491C16.5244 1.66797 18.3327 3.4763 18.3327 6.50963V13.493V13.493Z" fill="#FFFFFF"/>
</svg>
