<svg width="20" height="20" viewBox="0 0 20 20" fill="none" xmlns="http://www.w3.org/2000/svg">
<path d="M11.7885 11.2144L11.7887 11.2143C12.2634 10.9295 12.5848 10.5028 12.5848 9.99765C12.5848 9.49352 12.2645 9.06519 11.7915 8.7764L11.7915 8.77639L11.7885 8.77461L9.73037 7.54142C9.23975 7.24704 8.69325 7.15629 8.24037 7.41189C7.78706 7.66773 7.58266 8.18297 7.58266 8.75704V11.232C7.58266 11.8061 7.78706 12.3213 8.24037 12.5772C8.69325 12.8328 9.23975 12.742 9.73037 12.4477L11.7885 11.2144ZM5.83268 3.7487H14.166C15.3213 3.7487 16.2517 4.13198 16.8922 4.77249C17.5327 5.413 17.916 6.34338 17.916 7.4987V12.4987C17.916 13.654 17.5327 14.5844 16.8922 15.2249C16.2517 15.8654 15.3213 16.2487 14.166 16.2487H5.83268C4.67737 16.2487 3.74699 15.8654 3.10648 15.2249C2.46597 14.5844 2.08268 13.654 2.08268 12.4987V7.4987C2.08268 6.34338 2.46597 5.413 3.10648 4.77249C3.74699 4.13198 4.67737 3.7487 5.83268 3.7487Z" fill="#FFFFFF" stroke="#646A75" stroke-width="0.833333"/>
</svg>
