<svg width="20" height="20" viewBox="0 0 20 20" fill="none" xmlns="http://www.w3.org/2000/svg">
<path d="M13.491 1.66797H6.50768C3.47435 1.66797 1.66602 3.4763 1.66602 6.50964V13.4846C1.66602 16.5263 3.47435 18.3346 6.50768 18.3346H13.4827C16.516 18.3346 18.3243 16.5263 18.3243 13.493V6.50964C18.3327 3.4763 16.5243 1.66797 13.491 1.66797ZM9.99935 13.2346C8.21602 13.2346 6.76602 11.7846 6.76602 10.0013C6.76602 8.21797 8.21602 6.76797 9.99935 6.76797C11.7827 6.76797 13.2327 8.21797 13.2327 10.0013C13.2327 11.7846 11.7827 13.2346 9.99935 13.2346ZM14.9327 5.73464C14.891 5.83464 14.8327 5.9263 14.7577 6.00964C14.6743 6.08464 14.5827 6.14297 14.4827 6.18464C14.3827 6.2263 14.2743 6.2513 14.166 6.2513C13.941 6.2513 13.7327 6.16797 13.5743 6.00964C13.4993 5.9263 13.441 5.83464 13.3993 5.73464C13.3577 5.63464 13.3327 5.5263 13.3327 5.41797C13.3327 5.30964 13.3577 5.2013 13.3993 5.1013C13.441 4.99297 13.4993 4.90964 13.5743 4.8263C13.766 4.63464 14.0577 4.54297 14.3243 4.6013C14.3827 4.60964 14.4327 4.6263 14.4827 4.6513C14.5327 4.66797 14.5827 4.69297 14.6327 4.7263C14.6743 4.7513 14.716 4.79297 14.7577 4.8263C14.8327 4.90964 14.891 4.99297 14.9327 5.1013C14.9743 5.2013 14.9993 5.30964 14.9993 5.41797C14.9993 5.5263 14.9743 5.63464 14.9327 5.73464Z" fill="#FFFFFF"/>
</svg>
