<svg width="17" height="17" viewBox="0 0 17 17" fill="none" xmlns="http://www.w3.org/2000/svg">
<path fill-rule="evenodd" clip-rule="evenodd" d="M4 0C1.79086 0 0 1.79086 0 4V12.5C0 14.7091 1.79086 16.5 4 16.5H12.5C14.7091 16.5 16.5 14.7091 16.5 12.5V4C16.5 1.79086 14.7091 0 12.5 0H4ZM13.3499 3.5H11.6631L8.8837 6.69538L6.48055 3.5H3L7.15872 8.96923L3.21722 13.5H4.90497L7.94702 10.0041L10.6056 13.5H14L9.66486 7.7359L13.3499 3.5ZM12.0058 12.4846H11.0712L4.96973 4.46205H5.9727L12.0058 12.4846Z" fill="#FFFFFF"/>
</svg>
